<?xml version="1.0" encoding="UTF-8" standalone="no"?>
<!DOCTYPE svg PUBLIC "-//W3C//DTD SVG 1.1//EN"
 "http://www.w3.org/Graphics/SVG/1.1/DTD/svg11.dtd">
<!-- Generated by graphviz version 2.47.0 (0)
 -->
<!-- Title: pipeline_dag_20220814_133717 Pages: 1 -->
<svg width="183pt" height="129pt"
 viewBox="0.00 0.00 183.20 128.80" xmlns="http://www.w3.org/2000/svg" xmlns:xlink="http://www.w3.org/1999/xlink">
<g id="graph0" class="graph" transform="scale(1 1) rotate(0) translate(4 124.8)">
<title>pipeline_dag_20220814_133717</title>
<polygon fill="white" stroke="transparent" points="-4,4 -4,-124.8 179.2,-124.8 179.2,4 -4,4"/>
<!-- p0 -->
<g id="node1" class="node">
<title>p0</title>
<ellipse fill="black" stroke="black" cx="89.6" cy="-102.2" rx="3.6" ry="3.6"/>
<text text-anchor="middle" x="43" y="-109.6" font-family="Times,serif" font-size="14.00">Channel.empty</text>
</g>
<!-- p1 -->
<g id="node2" class="node">
<title>p1</title>
<ellipse fill="black" stroke="black" cx="89.6" cy="-44.1" rx="1.8" ry="1.8"/>
</g>
<!-- p0&#45;&gt;p1 -->
<g id="edge1" class="edge">
<title>p0&#45;&gt;p1</title>
<path fill="none" stroke="black" d="M89.6,-98.49C89.6,-91.04 89.6,-69.86 89.6,-56.52"/>
<polygon fill="black" stroke="black" points="93.1,-56.15 89.6,-46.15 86.1,-56.15 93.1,-56.15"/>
<text text-anchor="middle" x="123.1" y="-69.4" font-family="Times,serif" font-size="14.00">ch_versions</text>
</g>
<!-- p2 -->
<g id="node3" class="node">
<title>p2</title>
<ellipse fill="black" stroke="black" cx="171.6" cy="-102.2" rx="3.6" ry="3.6"/>
</g>
<!-- p3 -->
<g id="node4" class="node">
<title>p3</title>
<ellipse fill="none" stroke="black" cx="171.6" cy="-44.1" rx="3.5" ry="3.5"/>
<text text-anchor="middle" x="154.1" y="-51.4" font-family="Times,serif" font-size="14.00">view</text>
</g>
<!-- p2&#45;&gt;p3 -->
<g id="edge2" class="edge">
<title>p2&#45;&gt;p3</title>
<path fill="none" stroke="black" d="M171.6,-98.49C171.6,-91.26 171.6,-71.13 171.6,-57.76"/>
<polygon fill="black" stroke="black" points="175.1,-57.65 171.6,-47.65 168.1,-57.65 175.1,-57.65"/>
</g>
<!-- p4 -->
<g id="node5" class="node">
<title>p4</title>
<ellipse fill="black" stroke="black" cx="171.6" cy="-1.8" rx="1.8" ry="1.8"/>
</g>
<!-- p3&#45;&gt;p4 -->
<g id="edge3" class="edge">
<title>p3&#45;&gt;p4</title>
<path fill="none" stroke="black" d="M171.6,-40.46C171.6,-35.25 171.6,-23.38 171.6,-14.35"/>
<polygon fill="black" stroke="black" points="175.1,-14.05 171.6,-4.05 168.1,-14.05 175.1,-14.05"/>
</g>
</g>
</svg>
