<?xml version="1.0" encoding="UTF-8" standalone="no"?>
<!DOCTYPE svg PUBLIC "-//W3C//DTD SVG 1.1//EN"
 "http://www.w3.org/Graphics/SVG/1.1/DTD/svg11.dtd">
<!-- Generated by graphviz version 2.47.0 (0)
 -->
<!-- Title: pipeline_dag_20220814_135114 Pages: 1 -->
<svg width="488pt" height="129pt"
 viewBox="0.00 0.00 487.60 128.80" xmlns="http://www.w3.org/2000/svg" xmlns:xlink="http://www.w3.org/1999/xlink">
<g id="graph0" class="graph" transform="scale(1 1) rotate(0) translate(4 124.8)">
<title>pipeline_dag_20220814_135114</title>
<polygon fill="white" stroke="transparent" points="-4,4 -4,-124.8 483.6,-124.8 483.6,4 -4,4"/>
<!-- p0 -->
<g id="node1" class="node">
<title>p0</title>
<ellipse fill="black" stroke="black" cx="106.6" cy="-102.2" rx="3.6" ry="3.6"/>
<text text-anchor="middle" x="51.5" y="-109.6" font-family="Times,serif" font-size="14.00">Channel.fromPath</text>
</g>
<!-- p1 -->
<g id="node2" class="node">
<title>p1</title>
<ellipse fill="black" stroke="black" cx="106.6" cy="-44.1" rx="1.8" ry="1.8"/>
</g>
<!-- p0&#45;&gt;p1 -->
<g id="edge1" class="edge">
<title>p0&#45;&gt;p1</title>
<path fill="none" stroke="black" d="M106.6,-98.49C106.6,-91.04 106.6,-69.86 106.6,-56.52"/>
<polygon fill="black" stroke="black" points="110.1,-56.15 106.6,-46.15 103.1,-56.15 110.1,-56.15"/>
<text text-anchor="middle" x="171.6" y="-69.4" font-family="Times,serif" font-size="14.00">ch_vcf_from_directory</text>
</g>
<!-- p2 -->
<g id="node3" class="node">
<title>p2</title>
<ellipse fill="black" stroke="black" cx="259.6" cy="-102.2" rx="3.6" ry="3.6"/>
<text text-anchor="middle" x="213" y="-109.6" font-family="Times,serif" font-size="14.00">Channel.empty</text>
</g>
<!-- p3 -->
<g id="node4" class="node">
<title>p3</title>
<ellipse fill="black" stroke="black" cx="259.6" cy="-44.1" rx="1.8" ry="1.8"/>
</g>
<!-- p2&#45;&gt;p3 -->
<g id="edge2" class="edge">
<title>p2&#45;&gt;p3</title>
<path fill="none" stroke="black" d="M259.6,-98.49C259.6,-91.04 259.6,-69.86 259.6,-56.52"/>
<polygon fill="black" stroke="black" points="263.1,-56.15 259.6,-46.15 256.1,-56.15 263.1,-56.15"/>
<text text-anchor="middle" x="293.1" y="-69.4" font-family="Times,serif" font-size="14.00">ch_versions</text>
</g>
<!-- p4 -->
<g id="node5" class="node">
<title>p4</title>
<ellipse fill="black" stroke="black" cx="349.6" cy="-102.2" rx="3.6" ry="3.6"/>
<text text-anchor="middle" x="294.5" y="-87.4" font-family="Times,serif" font-size="14.00">Channel.fromPath</text>
</g>
<!-- p5 -->
<g id="node6" class="node">
<title>p5</title>
<ellipse fill="none" stroke="black" cx="349.6" cy="-44.1" rx="3.5" ry="3.5"/>
<text text-anchor="middle" x="332.1" y="-51.4" font-family="Times,serif" font-size="14.00">view</text>
</g>
<!-- p4&#45;&gt;p5 -->
<g id="edge3" class="edge">
<title>p4&#45;&gt;p5</title>
<path fill="none" stroke="black" d="M349.6,-98.49C349.6,-91.26 349.6,-71.13 349.6,-57.76"/>
<polygon fill="black" stroke="black" points="353.1,-57.65 349.6,-47.65 346.1,-57.65 353.1,-57.65"/>
<text text-anchor="middle" x="414.6" y="-69.4" font-family="Times,serif" font-size="14.00">ch_vcf_from_directory</text>
</g>
<!-- p6 -->
<g id="node7" class="node">
<title>p6</title>
<ellipse fill="black" stroke="black" cx="349.6" cy="-1.8" rx="1.8" ry="1.8"/>
</g>
<!-- p5&#45;&gt;p6 -->
<g id="edge4" class="edge">
<title>p5&#45;&gt;p6</title>
<path fill="none" stroke="black" d="M349.6,-40.46C349.6,-35.25 349.6,-23.38 349.6,-14.35"/>
<polygon fill="black" stroke="black" points="353.1,-14.05 349.6,-4.05 346.1,-14.05 353.1,-14.05"/>
</g>
</g>
</svg>
